<svg xmlns="http://www.w3.org/2000/svg" viewBox="0 -2 28 26" width="40px">
 <rect width="24" height="24" rx="15" ry="15" style="fill:#f06e6e" />
<g fill="#fff" stroke="none"><path d="M18 13v-2h-2.1c-.1-.4-.2-.7-.4-1L17 8.5l-1.4-1.4L14 8.6c-.3-.2-.7-.3-1-.4V6h-2v2.1c-.4.1-.7.2-1 .4L8.5 7.1 7.1 8.5 8.6 10c-.2.3-.3.7-.4 1H6v2h2.1c.1.4.2.7.4 1L7 15.5 8.5 17l1.5-1.5c.3.2.7.3 1 .4V18h2v-2.1c.4-.1.7-.2 1-.4l1.5 1.5 1.4-1.4-1.5-1.5c.2-.3.3-.7.4-1H18zm-6 1c-1.1 0-2-.9-2-2s.9-2 2-2 2 .9 2 2-.9 2-2 2zm6.3-9.7C16.6 2.9 14.4 2 12 2s-4.6.9-6.3 2.3l1.4 1.4C8.5 4.7 10.2 4 12 4s3.5.6 4.9 1.7l1.4-1.4zM4 12c0-1.8.6-3.5 1.7-4.9L4.3 5.7C2.9 7.4 2 9.6 2 12c0 5.2 4 9.4 9 10v-2c-3.9-.5-7-3.9-7-8zm9 8v2c2.5-.3 4.7-1.4 6.4-3.2L18 17.4c-1.3 1.4-3.1 2.3-5 2.6zm6.7-14.3-1.4 1.4C19.4 8.5 20 10.2 20 12c0 1.3-.3 2.6-.9 3.7l1.5 1.5c.9-1.5 1.4-3.3 1.4-5.2 0-2.4-.9-4.6-2.3-6.3z"/></g></svg>